<svg width="65" height="65" viewBox="0 0 65 65" fill="none" xmlns="http://www.w3.org/2000/svg">
<path d="M18.6369 38.5275L29.9057 23.117L46.7572 13.7838L52.5688 10.7987L31.1121 24.6188L19.7374 40.0119L28.6131 39.5426L31.4608 35.8579L27.6237 34.8481L32.2323 33.8171L34.3866 28.9364L29.5423 29.2777L36.11 26.6837L43.0037 21.5214L42.142 19.3626L45.0718 20.1135L52.5688 14.4819L55.5848 7.91168L41.8364 11.9965L36.964 17.5743L38.3004 12.6047L28.6131 17.5743L23.7875 29.2777L23.7875 20.661L19.1342 26.2144L20.5213 33.8171L17.3246 28.9364L18.6369 38.5275Z" fill="#828282"/>
<path d="M17.9278 41.3259L14.481 46.0189L13.6192 50.5242L17.3246 47.6145L17.9278 41.3259Z" fill="#828282"/>
<path d="M28.9991 20.9144H26.5645V38.5275H25.1518L13.8206 23.1386H13.7003V36.6039H16.7961V38.5275H9.34216V36.6039H11.5964V20.9144H9.01154V18.9908H13.2194L24.3403 34.0491H24.4605V20.9144H21.515V18.9908H28.9991V20.9144Z" fill="white"/>
<path d="M54.5071 51.5099H30.2616V48.3039H34.3693V22.1548H30.2616V18.9488H54.0563L55.0582 28.1661L51.8522 28.5167L50.8503 22.1548H38.0262V33.3759H53.4051V36.5819H38.0262V48.3039H51.3011L52.303 41.9419L55.4589 42.2926L54.5071 51.5099Z" fill="white"/>
</svg>
